<?xml version="1.0" encoding="UTF-8"?>
<svg xmlns="http://www.w3.org/2000/svg" xmlns:xlink="http://www.w3.org/1999/xlink" width="50pt" height="50pt" viewBox="0 0 50 50" version="1.1">
<g id="surface2858185">
<path style="fill-rule:nonzero;fill:rgb(92.54902%,94.117647%,94.509804%);fill-opacity:1;stroke-width:2;stroke-linecap:butt;stroke-linejoin:round;stroke:rgb(80.000001%,80.000001%,80.000001%);stroke-opacity:1;stroke-miterlimit:10;" d="M 153.17391 119.546193 C 149.464671 127.779888 147.684779 131.461954 142.902171 138.730975 C 136.230975 148.894018 126.815215 161.570649 115.171193 161.65217 C 104.817932 161.747279 102.141302 154.899453 88.065215 155.021736 C 74.016303 155.076083 71.08152 161.78804 60.714673 161.679344 C 49.057064 161.570649 40.157608 150.144018 33.472825 140.008149 C 14.790761 111.557063 12.820652 78.201085 24.355978 60.470107 C 32.535325 47.888586 45.442934 40.497282 57.576086 40.497282 C 69.940216 40.497282 77.711955 47.29076 87.915759 47.29076 C 97.834237 47.29076 103.866845 40.483695 118.17391 40.483695 C 128.975541 40.483695 140.388584 46.366847 148.567931 56.52989 C 121.855976 71.176629 126.190215 109.328802 153.17391 119.546193 Z M 82.929346 41.502716 C 81.230976 32.331521 85.578802 22.847826 90.836954 16.448369 C 96.624998 9.4375 106.543476 4.016304 115.021737 3.445652 C 116.461954 13.038043 112.50815 22.453804 107.317932 29.138586 C 101.760867 36.285325 92.182063 41.80163 82.929346 41.502716 Z M 82.929346 41.502716 " transform="matrix(0.2875,0,0,0.2875,0.275,0.275)"/>
<path style=" stroke:none;fill-rule:nonzero;fill:rgb(92.54902%,94.117647%,94.509804%);fill-opacity:1;" d="M 44.3125 34.644531 C 43.246094 37.011719 42.734375 38.070312 41.359375 40.160156 C 39.441406 43.082031 36.734375 46.726562 33.386719 46.75 C 30.410156 46.777344 29.640625 44.808594 25.59375 44.84375 C 21.554688 44.859375 20.710938 46.789062 17.730469 46.757812 C 14.378906 46.726562 11.820312 43.441406 9.898438 40.527344 C 4.527344 32.347656 3.960938 22.757812 7.277344 17.660156 C 9.628906 14.042969 13.339844 11.917969 16.828125 11.917969 C 20.382812 11.917969 22.617188 13.871094 25.550781 13.871094 C 28.402344 13.871094 30.136719 11.914062 34.25 11.914062 C 37.355469 11.914062 40.636719 13.605469 42.988281 16.527344 C 35.308594 20.738281 36.554688 31.707031 44.3125 34.644531 Z M 31.128906 8.652344 C 32.621094 6.730469 33.757812 4.023438 33.34375 1.265625 C 30.90625 1.429688 28.054688 2.988281 26.390625 5.003906 C 24.878906 6.84375 23.628906 9.570312 24.117188 12.207031 C 26.777344 12.292969 29.53125 10.707031 31.128906 8.652344 Z M 31.128906 8.652344 "/>
</g>
</svg>
